<svg id="svg" version="1.1" xmlns="http://www.w3.org/2000/svg" xmlns:xlink="http://www.w3.org/1999/xlink" width="111.196" height="55.59" viewBox="0, 0, 400,200"><g id="svgg"><path id="path0" d="M96.769 1.452 C 87.732 2.157,74.405 7.852,62.937 15.908 C 61.841 16.677,59.882 18.045,58.583 18.946 C 57.284 19.847,55.609 21.080,54.859 21.687 C 54.110 22.293,52.189 23.840,50.590 25.125 C 43.054 31.182,30.239 44.006,24.055 51.680 C 11.182 67.655,3.301 82.815,1.533 95.005 C -0.437 108.576,7.370 126.992,23.824 147.593 C 26.259 150.643,27.150 151.672,32.723 157.874 C 42.778 169.065,58.396 181.814,70.625 188.812 C 93.152 201.706,106.884 201.851,128.706 189.429 C 134.982 185.857,139.134 183.004,147.593 176.450 C 148.852 175.474,153.509 171.566,154.314 170.810 C 154.614 170.528,156.085 169.181,157.584 167.816 C 160.741 164.942,165.711 159.945,167.761 157.584 C 168.541 156.685,170.188 154.840,171.420 153.485 C 178.914 145.242,187.593 132.703,192.191 123.479 C 201.032 105.739,201.000 94.281,192.058 76.153 C 187.861 67.644,178.504 54.035,172.318 47.441 C 171.506 46.576,170.025 44.968,169.028 43.869 C 163.473 37.748,152.954 27.702,148.453 24.219 C 147.581 23.544,146.078 22.358,145.113 21.583 C 139.157 16.799,129.911 10.917,123.439 7.796 C 112.537 2.538,105.204 0.794,96.769 1.452 M104.497 82.740 C 107.334 83.235,110.636 84.690,112.455 86.246 C 114.040 87.603,113.818 89.462,111.786 91.855 C 110.173 93.754,109.039 93.887,106.801 92.440 C 99.363 87.632,90.138 94.751,93.005 103.085 C 94.793 108.280,101.927 110.806,106.345 107.808 C 109.442 105.706,111.041 106.253,112.997 110.082 C 114.208 112.453,112.453 114.663,108.084 116.271 C 94.985 121.094,81.978 110.313,84.371 96.618 C 85.949 87.590,95.307 81.138,104.497 82.740 M64.396 83.178 C 65.790 83.824,66.938 86.014,78.214 109.555 C 80.516 114.360,80.264 115.352,76.300 117.084 C 73.741 118.202,72.922 117.642,70.791 113.317 L 69.119 109.922 62.665 109.911 L 56.210 109.900 54.763 112.941 C 52.386 117.935,51.513 118.387,47.902 116.489 C 45.937 115.457,45.223 114.330,45.620 112.890 C 46.168 110.904,59.050 84.735,59.841 84.000 C 61.102 82.829,62.929 82.499,64.396 83.178 M125.917 83.334 C 126.656 83.661,127.252 84.374,132.044 90.667 C 134.963 94.501,137.414 97.661,137.490 97.688 C 137.565 97.715,138.759 96.244,140.142 94.418 C 149.494 82.077,148.626 82.921,151.954 82.929 C 154.071 82.935,154.984 83.280,155.586 84.305 C 156.170 85.298,156.153 114.325,155.568 115.441 C 154.943 116.632,154.291 116.894,151.948 116.894 C 147.605 116.894,147.796 117.366,147.684 106.358 L 147.593 97.458 146.049 99.571 C 145.200 100.733,143.613 102.921,142.524 104.432 C 140.177 107.688,139.201 108.390,137.251 108.228 C 135.391 108.074,134.922 107.629,131.063 102.370 L 127.611 97.666 127.520 106.281 C 127.408 116.969,127.487 116.737,123.900 116.941 C 121.249 117.092,119.901 116.549,119.358 115.111 C 119.042 114.274,119.093 85.352,119.412 84.599 C 120.113 82.943,123.530 82.278,125.917 83.334 M61.223 99.591 C 60.497 101.115,59.863 102.464,59.814 102.589 C 59.745 102.764,60.384 102.816,62.651 102.816 C 64.260 102.816,65.577 102.774,65.577 102.723 C 65.577 102.581,62.677 96.821,62.606 96.821 C 62.572 96.821,61.950 98.068,61.223 99.591 " stroke="none" fill="#146cfc" fill-rule="evenodd"></path><path id="path1" d="M293.370 82.572 C 286.712 84.007,283.250 91.481,286.415 97.583 C 287.861 100.370,290.570 101.932,296.614 103.461 C 300.297 104.394,301.356 105.202,301.084 106.874 C 300.487 110.532,296.304 110.701,292.577 107.216 C 289.797 104.616,288.360 104.534,286.170 106.849 C 284.077 109.063,284.170 110.483,286.583 113.150 C 293.288 120.559,307.145 118.118,309.258 109.155 C 309.613 107.647,309.617 104.472,309.266 103.123 C 308.212 99.079,305.719 97.387,298.636 95.912 C 295.276 95.213,294.174 94.616,293.723 93.249 C 292.800 90.452,297.475 88.949,300.054 91.213 C 302.763 93.591,305.480 92.781,307.211 89.081 C 309.114 85.014,300.605 81.013,293.370 82.572 M338.056 82.572 C 331.399 84.007,327.937 91.481,331.102 97.583 C 332.548 100.370,335.257 101.932,341.300 103.461 C 344.984 104.394,346.043 105.202,345.771 106.874 C 345.174 110.532,340.990 110.701,337.264 107.216 C 334.484 104.616,333.047 104.534,330.857 106.849 C 328.764 109.063,328.857 110.483,331.270 113.150 C 337.975 120.559,351.831 118.118,353.944 109.155 C 354.299 107.647,354.304 104.472,353.952 103.123 C 352.899 99.079,350.405 97.387,343.322 95.912 C 339.962 95.213,338.861 94.616,338.410 93.249 C 337.487 90.452,342.162 88.949,344.741 91.213 C 347.449 93.591,350.166 92.781,351.898 89.081 C 353.801 85.014,345.291 81.013,338.056 82.572 M317.370 83.033 C 316.403 83.327,315.948 83.707,315.638 84.483 C 315.146 85.711,315.215 114.399,315.712 115.494 C 316.700 117.671,322.386 117.644,323.354 115.458 C 323.933 114.149,323.820 84.951,323.233 84.164 C 322.372 83.010,319.361 82.429,317.370 83.033 M359.945 83.086 C 358.839 83.568,358.364 85.260,358.738 87.383 C 359.126 89.588,359.600 89.737,366.221 89.737 L 370.936 89.737 370.936 102.232 L 370.936 114.728 371.344 115.538 C 371.980 116.800,372.563 117.010,375.237 116.947 C 379.388 116.847,379.109 117.901,379.110 102.329 L 379.110 89.762 384.332 89.695 C 391.350 89.606,391.367 89.598,391.367 86.183 C 391.368 84.095,391.133 83.526,390.092 83.091 C 389.216 82.725,360.785 82.720,359.945 83.086 M252.069 84.292 C 250.580 84.739,250.318 85.511,250.318 89.456 L 250.318 92.637 249.273 92.528 C 246.883 92.278,246.083 93.329,246.072 96.730 C 246.061 99.971,246.627 100.741,248.993 100.708 L 250.318 100.689 250.318 104.915 C 250.318 114.265,252.493 116.981,259.990 116.998 C 263.675 117.006,264.407 116.323,264.386 112.897 C 264.369 110.098,263.732 109.406,261.001 109.219 C 258.629 109.056,258.513 108.804,258.500 103.786 L 258.492 100.670 261.081 100.698 C 265.208 100.743,266.233 99.519,265.582 95.323 C 265.199 92.851,264.707 92.549,261.091 92.561 L 258.513 92.570 258.457 89.076 L 258.401 85.582 257.893 85.051 C 257.058 84.181,253.841 83.761,252.069 84.292 M224.907 92.737 C 217.802 94.730,214.104 103.441,217.466 110.261 C 220.486 116.388,228.836 119.134,232.416 115.178 L 232.771 114.786 233.052 115.379 C 234.186 117.769,240.050 117.574,240.778 115.122 C 241.214 113.652,241.171 95.486,240.728 94.187 C 239.839 91.583,232.879 91.868,232.879 94.508 C 232.879 94.853,232.819 94.830,232.289 94.284 C 230.798 92.749,227.401 92.037,224.907 92.737 M230.154 101.096 C 231.882 101.992,232.811 104.413,232.089 106.137 C 230.731 109.378,226.502 109.433,224.868 106.231 C 223.307 103.171,227.083 99.503,230.154 101.096 " stroke="none" fill="#040404" fill-rule="evenodd"></path><path id="path2" d="M98.638 82.923 C 88.037 85.049,81.913 94.858,84.913 104.905 C 88.120 115.647,100.936 120.702,110.457 114.979 C 113.484 113.160,113.925 112.197,112.782 109.909 C 111.080 106.503,109.133 105.863,106.493 107.842 C 102.990 110.468,96.428 109.044,93.883 105.106 C 88.502 96.781,98.425 86.874,106.726 92.283 C 108.952 93.733,109.776 93.704,111.360 92.120 C 113.438 90.042,113.935 87.909,112.650 86.584 C 109.866 83.712,103.282 81.992,98.638 82.923 M61.944 83.011 C 59.789 83.422,59.849 83.323,52.507 98.547 C 45.835 112.381,45.444 113.270,45.660 114.131 C 46.123 115.974,50.275 117.943,51.913 117.096 C 52.755 116.661,53.233 115.924,54.782 112.670 L 56.187 109.718 62.653 109.721 L 69.119 109.723 70.781 113.163 C 72.987 117.730,73.745 118.183,76.767 116.734 C 79.147 115.594,80.004 114.424,79.583 112.890 C 79.151 111.317,66.127 84.764,65.443 84.063 C 64.563 83.160,63.243 82.763,61.944 83.011 M121.163 83.229 C 120.412 83.442,119.964 83.813,119.555 84.559 C 119.054 85.471,119.102 114.405,119.605 115.420 C 120.580 117.383,125.673 117.496,126.928 115.582 C 127.219 115.137,127.256 114.298,127.339 106.184 L 127.430 97.275 128.883 99.251 C 135.460 108.193,135.210 107.933,137.340 108.053 C 138.418 108.114,138.686 108.060,139.500 107.617 C 140.498 107.074,140.502 107.069,145.160 100.636 L 147.593 97.275 147.684 106.085 C 147.767 114.161,147.802 114.946,148.106 115.502 C 149.210 117.526,154.407 117.423,155.450 115.357 L 155.858 114.546 155.858 99.825 C 155.858 83.381,155.926 84.254,154.587 83.476 C 153.716 82.970,149.914 82.930,149.023 83.418 C 148.509 83.699,144.339 88.970,139.241 95.783 C 138.360 96.960,137.578 97.900,137.503 97.872 C 137.428 97.843,135.099 94.837,132.328 91.190 C 126.408 83.398,126.607 83.627,125.451 83.284 C 124.439 82.983,122.131 82.954,121.163 83.229 M64.246 99.731 L 65.731 102.816 62.661 102.816 L 59.591 102.816 60.196 101.499 C 61.174 99.371,62.563 96.639,62.666 96.643 C 62.718 96.644,63.429 98.034,64.246 99.731 " stroke="none" fill="#fafafc" fill-rule="evenodd"></path><path id="path3" d="M111.251 92.325 L 110.718 92.916 111.308 92.382 C 111.633 92.089,111.898 91.823,111.898 91.792 C 111.898 91.651,111.748 91.775,111.251 92.325 M59.446 109.854 C 61.219 109.884,64.121 109.884,65.895 109.854 C 67.668 109.825,66.217 109.800,62.670 109.800 C 59.124 109.800,57.673 109.825,59.446 109.854 " stroke="none" fill="#528afc" fill-rule="evenodd"></path><path id="path4" d="M101.317 82.602 C 101.642 82.642,102.173 82.642,102.498 82.602 C 102.822 82.562,102.557 82.529,101.907 82.529 C 101.258 82.529,100.992 82.562,101.317 82.602 M122.845 82.964 C 123.121 83.006,123.530 83.005,123.754 82.962 C 123.977 82.919,123.751 82.884,123.252 82.886 C 122.752 82.887,122.569 82.922,122.845 82.964 M151.365 82.964 C 151.641 83.006,152.050 83.005,152.273 82.962 C 152.497 82.919,152.271 82.884,151.771 82.886 C 151.272 82.887,151.089 82.922,151.365 82.964 M155.945 99.818 C 155.945 107.611,155.967 110.773,155.995 106.844 C 156.022 102.915,156.022 96.539,155.994 92.675 C 155.967 88.811,155.945 92.025,155.945 99.818 M127.422 105.359 C 127.422 109.805,127.446 111.624,127.475 109.401 C 127.504 107.178,127.504 103.540,127.475 101.317 C 127.446 99.094,127.422 100.913,127.422 105.359 M84.171 99.728 C 84.171 100.677,84.201 101.065,84.239 100.590 C 84.276 100.116,84.276 99.339,84.239 98.865 C 84.201 98.390,84.171 98.778,84.171 99.728 M137.103 108.212 C 137.327 108.255,137.695 108.255,137.920 108.212 C 138.145 108.168,137.961 108.133,137.511 108.133 C 137.062 108.133,136.878 108.168,137.103 108.212 M74.160 117.473 C 74.335 117.519,74.621 117.519,74.796 117.473 C 74.970 117.427,74.827 117.390,74.478 117.390 C 74.128 117.390,73.985 117.427,74.160 117.473 M101.226 117.480 C 101.601 117.519,102.214 117.519,102.589 117.480 C 102.963 117.441,102.657 117.409,101.907 117.409 C 101.158 117.409,100.851 117.441,101.226 117.480 " stroke="none" fill="#8cacfc" fill-rule="evenodd"></path></g></svg>