<?xml version="1.0" standalone="no"?>
<!DOCTYPE svg PUBLIC "-//W3C//DTD SVG 20010904//EN"
 "http://www.w3.org/TR/2001/REC-SVG-20010904/DTD/svg10.dtd">
<svg version="1.0" xmlns="http://www.w3.org/2000/svg"
 width="2202.000000pt" height="1101.000000pt" viewBox="0 0 2202.000000 1101.000000">

<g transform="translate(0.000000,1101.000000) scale(0.100000,-0.100000)"
fill="#000000" stroke="none">
<path d="M5270 10909 c-450 -55 -1087 -319 -1628 -675 -234 -153 -550 -380
-697 -499 -82 -67 -189 -153 -237 -191 -281 -226 -951 -890 -1245 -1234 -100
-118 -340 -423 -416 -530 -541 -760 -841 -1385 -943 -1965 -27 -151 -25 -421
5 -590 69 -395 197 -741 438 -1183 149 -273 210 -370 362 -587 263 -375 467
-637 676 -870 64 -71 179 -200 255 -285 153 -172 322 -340 509 -505 68 -61
176 -156 240 -213 244 -217 610 -502 891 -694 279 -190 637 -393 905 -514 361
-163 758 -270 1070 -290 260 -16 619 58 980 201 533 212 1056 530 1680 1023
368 291 875 768 1136 1068 63 72 158 179 211 238 164 180 539 671 713 931 417
627 691 1271 746 1755 15 130 7 402 -16 525 -117 650 -511 1411 -1152 2225
-174 222 -210 264 -438 512 -283 307 -623 640 -989 967 -71 63 -266 218 -485
385 -146 111 -537 371 -701 466 -444 257 -918 448 -1285 517 -96 18 -474 26
-585 12z m553 -4469 c109 -29 189 -62 282 -119 143 -87 172 -152 117 -264 -41
-82 -102 -150 -156 -177 -56 -27 -95 -18 -187 41 -120 79 -244 103 -377 75
-279 -59 -444 -291 -404 -569 27 -182 136 -318 313 -387 137 -55 349 -37 447
37 57 43 140 76 174 69 47 -9 94 -50 144 -126 52 -77 76 -147 67 -192 -20
-100 -278 -238 -518 -279 -157 -27 -363 9 -540 95 -287 139 -453 338 -527 633
-32 124 -31 370 1 488 27 102 95 242 155 322 134 178 412 334 661 373 89 13
258 4 348 -20z m-2300 -1 c88 -24 86 -20 487 -850 404 -835 403 -834 361 -902
-25 -40 -73 -76 -155 -113 -107 -49 -172 -42 -227 23 -13 16 -60 104 -104 196
l-80 167 -355 0 -356 0 -86 -179 c-70 -144 -94 -184 -123 -207 -53 -40 -117
-39 -208 4 -164 76 -200 144 -145 272 70 161 726 1501 746 1524 58 63 158 89
245 65z m3410 -17 c37 -16 79 -67 337 -405 162 -213 297 -387 300 -387 4 0 40
44 81 98 550 719 518 680 567 699 34 13 74 18 142 18 81 0 102 -4 145 -25 90
-45 86 3 83 -924 l-3 -801 -23 -42 c-34 -65 -67 -78 -197 -78 -123 0 -171 16
-209 68 -20 28 -21 43 -26 515 l-5 487 -124 -170 c-68 -93 -140 -192 -159
-220 -75 -105 -126 -158 -176 -181 -68 -32 -128 -31 -195 2 -57 29 -77 54
-324 392 l-126 173 -3 -473 c-3 -450 -4 -475 -23 -513 -31 -63 -76 -80 -210
-80 -121 0 -157 12 -199 68 -21 28 -21 33 -24 848 -2 791 -2 822 17 864 22 50
51 72 112 85 64 13 193 4 242 -18z"/>
<path d="M3367 5521 c-43 -88 -77 -162 -77 -165 0 -3 72 -6 161 -6 91 0 159 4
157 9 -13 36 -154 320 -159 321 -3 0 -40 -72 -82 -159z"/>
<path d="M16208 6469 c-141 -20 -270 -88 -357 -186 -97 -108 -141 -226 -141
-373 1 -227 93 -381 284 -473 104 -51 247 -99 356 -122 91 -19 171 -55 205
-91 44 -48 29 -151 -30 -206 -35 -33 -89 -49 -169 -49 -84 -1 -139 28 -253
133 -95 86 -141 112 -195 110 -48 -1 -88 -23 -139 -75 -100 -102 -116 -165
-64 -252 41 -71 160 -186 242 -234 353 -209 866 -93 1026 230 107 218 83 491
-59 649 -74 82 -221 142 -480 196 -193 40 -262 82 -271 166 -6 56 8 90 50 122
82 63 222 56 303 -15 52 -45 104 -73 152 -84 75 -16 187 76 243 198 25 57 24
86 -8 136 -102 158 -424 260 -695 220z"/>
<path d="M18668 6469 c-141 -20 -270 -88 -357 -186 -97 -108 -141 -226 -141
-373 1 -227 93 -381 284 -473 104 -51 247 -99 356 -122 91 -19 171 -55 205
-91 44 -48 29 -151 -30 -206 -35 -33 -89 -49 -169 -49 -84 -1 -139 28 -253
133 -95 86 -141 112 -195 110 -48 -1 -88 -23 -139 -75 -100 -102 -116 -165
-64 -252 41 -71 160 -186 242 -234 353 -209 866 -93 1026 230 107 218 83 491
-59 649 -74 82 -221 142 -480 196 -193 40 -262 82 -271 166 -6 56 8 90 50 122
82 63 222 56 303 -15 52 -45 104 -73 152 -84 75 -16 187 76 243 198 25 57 24
86 -8 136 -102 158 -424 260 -695 220z"/>
<path d="M17502 6440 c-73 -15 -105 -40 -124 -95 -16 -46 -17 -116 -15 -850 2
-778 3 -801 22 -839 32 -63 78 -81 205 -81 128 0 174 18 205 80 20 39 20 60
20 855 0 772 -1 817 -18 852 -13 25 -33 44 -60 57 -49 23 -171 34 -235 21z"/>
<path d="M19836 6437 c-63 -19 -80 -53 -84 -160 -3 -109 13 -152 68 -179 31
-16 69 -18 318 -18 l282 0 1 -662 c0 -365 4 -685 8 -711 17 -104 63 -132 216
-132 149 0 193 25 215 121 5 21 10 342 10 712 l0 672 283 0 c255 0 286 2 324
19 53 25 67 64 62 184 -5 98 -23 134 -80 154 -48 17 -1567 17 -1623 0z"/>
<path d="M13903 6371 c-47 -12 -80 -37 -100 -74 -14 -26 -18 -66 -21 -209 l-4
-178 -65 0 c-124 0 -154 -37 -161 -203 -8 -182 29 -237 159 -237 l67 0 5 -252
c7 -328 24 -401 119 -504 51 -55 104 -86 198 -115 62 -19 98 -23 205 -24 150
0 184 10 217 63 31 50 38 202 13 268 -22 59 -56 76 -168 84 -136 10 -131 2
-135 268 l-3 217 138 -3 c158 -3 192 7 228 68 17 30 20 52 20 150 0 98 -3 120
-20 150 -36 61 -70 71 -227 68 l-136 -3 -4 187 c-3 207 -8 221 -77 262 -37 21
-191 32 -248 17z"/>
<path d="M12445 5914 c-118 -18 -240 -87 -343 -193 -112 -115 -170 -234 -192
-389 -28 -208 46 -416 206 -576 139 -139 285 -195 459 -175 86 9 151 36 203
84 38 34 41 35 47 15 12 -39 56 -80 98 -91 22 -6 82 -11 133 -11 72 0 100 4
131 21 74 37 73 27 73 649 0 516 -2 549 -19 589 -29 63 -64 77 -196 78 -98 0
-114 -3 -152 -24 -38 -22 -73 -70 -73 -100 0 -6 -18 7 -40 28 -70 68 -224 111
-335 95z m221 -463 c22 -10 56 -37 75 -60 61 -70 74 -152 38 -231 -69 -154
-247 -184 -362 -61 -74 79 -85 167 -31 258 58 100 178 140 280 94z"/>
</g>
</svg>
