<svg id="svg" version="1.1" xmlns="http://www.w3.org/2000/svg" xmlns:xlink="http://www.w3.org/1999/xlink" width="111.196" height="55.59" viewBox="0, 0, 400,200"><g id="svgg"><path id="path0" d="M95.913 1.558 C 95.663 1.599,94.886 1.723,94.187 1.833 C 88.112 2.790,79.351 6.120,72.116 10.222 C 71.367 10.647,70.318 11.239,69.784 11.537 C 66.424 13.418,56.512 20.339,52.935 23.302 C 51.818 24.228,49.352 26.224,48.399 26.975 C 47.708 27.519,46.377 28.691,45.330 29.675 C 45.026 29.961,44.083 30.815,43.233 31.574 C 41.220 33.371,33.395 41.206,31.421 43.400 C 30.575 44.341,29.753 45.240,29.596 45.398 C 27.939 47.061,25.183 50.287,23.218 52.861 C 22.951 53.211,22.513 53.742,22.244 54.042 C 21.772 54.569,19.559 57.474,18.786 58.583 C 10.405 70.595,6.379 78.081,3.484 87.033 C 1.054 94.549,0.694 99.817,2.121 106.994 C 2.760 110.207,3.691 113.399,4.851 116.349 C 6.733 121.134,7.890 123.491,11.474 129.837 C 12.850 132.273,14.182 134.380,15.692 136.512 C 17.596 139.200,18.307 140.202,19.661 142.111 C 21.017 144.022,24.778 148.817,26.225 150.480 C 26.738 151.069,27.307 151.723,27.490 151.933 C 28.673 153.294,29.922 154.705,30.156 154.944 C 30.306 155.099,31.399 156.328,32.584 157.676 C 34.609 159.980,39.457 164.917,40.877 166.123 C 41.551 166.695,44.560 169.379,45.050 169.846 C 45.208 169.995,45.898 170.609,46.583 171.208 C 47.269 171.807,47.920 172.384,48.030 172.490 C 48.563 173.004,51.800 175.669,52.698 176.331 C 53.257 176.744,53.833 177.202,53.979 177.348 C 55.455 178.823,65.493 185.846,68.847 187.749 C 69.496 188.117,70.293 188.572,70.618 188.760 C 78.592 193.367,83.650 195.508,90.986 197.380 C 97.018 198.919,101.616 199.089,107.266 197.982 C 109.798 197.487,115.019 195.930,116.894 195.113 C 117.094 195.026,117.788 194.730,118.438 194.456 C 119.087 194.183,119.986 193.798,120.436 193.601 C 121.839 192.987,125.393 191.226,126.249 190.722 C 126.698 190.456,127.598 189.957,128.247 189.612 C 130.141 188.607,134.921 185.700,136.666 184.491 C 139.918 182.241,148.323 175.944,149.595 174.806 C 150.187 174.277,151.363 173.266,152.397 172.399 C 152.926 171.955,153.452 171.505,153.564 171.398 C 153.677 171.292,154.894 170.197,156.269 168.966 C 158.755 166.739,164.758 160.854,166.489 158.946 C 166.988 158.397,168.253 156.969,169.302 155.773 C 170.350 154.577,171.412 153.388,171.662 153.129 C 172.657 152.101,174.348 150.121,175.295 148.877 C 177.184 146.396,177.385 146.139,177.798 145.686 C 178.026 145.436,178.737 144.496,179.378 143.597 C 180.018 142.698,181.140 141.168,181.870 140.197 C 184.608 136.556,185.988 134.431,189.544 128.377 C 193.931 120.907,197.807 110.709,198.465 104.905 C 198.533 104.305,198.623 103.651,198.664 103.451 C 198.868 102.479,198.732 96.944,198.462 95.186 C 197.520 89.077,195.874 84.145,192.370 76.930 C 188.806 69.594,183.496 61.303,177.828 54.223 C 177.268 53.524,176.353 52.354,175.795 51.624 C 174.890 50.438,173.451 48.741,172.232 47.422 C 171.996 47.166,171.056 46.143,170.143 45.147 C 165.286 39.851,159.456 34.004,155.670 30.633 C 155.124 30.147,154.103 29.206,153.401 28.544 C 151.309 26.569,150.738 26.082,148.049 23.978 C 147.474 23.529,146.088 22.439,144.968 21.556 C 141.503 18.827,138.236 16.546,132.425 12.799 C 128.717 10.408,121.180 6.582,116.985 4.961 C 113.974 3.798,113.448 3.610,112.215 3.256 C 107.075 1.780,105.864 1.598,100.817 1.537 C 98.370 1.507,96.163 1.517,95.913 1.558 M105.450 78.042 C 109.581 78.879,114.545 81.434,115.627 83.280 C 116.527 84.816,116.084 86.711,114.307 88.916 C 112.040 91.730,110.686 91.970,107.787 90.068 C 100.979 85.603,91.811 89.212,90.169 97.003 C 88.094 106.853,99.034 114.462,107.428 109.007 C 110.590 106.951,111.921 107.059,113.874 109.530 C 117.097 113.608,116.776 115.633,112.501 118.195 C 104.015 123.281,93.290 121.869,85.725 114.670 C 77.725 107.057,77.326 92.548,84.901 84.784 C 90.146 79.408,98.561 76.648,105.450 78.042 M54.778 78.542 C 56.383 79.289,56.501 79.505,65.264 97.621 C 74.060 115.808,74.183 116.096,73.675 117.425 C 72.933 119.368,68.798 121.613,66.635 121.248 C 65.011 120.974,64.319 119.953,61.190 113.215 L 60.494 111.717 52.490 111.717 L 44.486 111.717 44.223 112.347 C 43.417 114.275,40.618 119.675,40.191 120.124 C 37.579 122.873,30.373 119.337,31.209 115.716 C 31.465 114.607,47.782 80.792,48.479 79.927 C 49.834 78.245,52.759 77.602,54.778 78.542 M130.881 78.357 C 132.638 78.825,132.654 78.843,139.240 87.500 C 142.722 92.077,145.741 96.030,145.949 96.285 L 146.327 96.748 150.048 91.841 C 158.048 81.293,159.808 79.083,160.453 78.777 C 162.778 77.673,167.254 77.990,168.455 79.344 C 169.294 80.290,169.284 80.048,169.293 99.104 C 169.302 119.053,169.336 118.439,168.141 119.633 C 166.636 121.139,161.196 120.922,159.703 119.297 C 158.998 118.531,158.956 117.830,158.943 106.903 L 158.932 96.367 158.398 96.991 C 158.105 97.334,156.256 99.848,154.289 102.576 C 149.600 109.082,149.121 109.528,146.656 109.687 C 143.875 109.866,143.209 109.271,137.693 101.687 L 133.787 96.317 133.697 107.241 C 133.615 117.109,133.576 118.220,133.294 118.734 C 131.840 121.391,125.219 121.374,123.887 118.710 L 123.433 117.802 123.433 99.364 L 123.433 80.926 123.887 80.021 C 124.733 78.336,127.940 77.573,130.881 78.357 M50.619 99.189 C 49.654 101.190,48.865 102.866,48.865 102.913 C 48.865 102.959,50.506 102.997,52.513 102.997 C 54.562 102.997,56.135 102.927,56.101 102.836 C 55.804 102.046,52.590 95.550,52.496 95.550 C 52.428 95.550,51.584 97.187,50.619 99.189 " stroke="none" fill="#146cfc" fill-rule="evenodd"></path><path id="path1" d="M291.337 77.927 C 283.162 78.948,278.706 86.895,282.192 94.237 C 283.617 97.236,287.076 99.354,292.643 100.635 C 297.148 101.673,298.451 102.573,298.234 104.499 C 297.797 108.377,293.111 108.724,289.267 105.163 C 286.026 102.160,284.268 101.982,282.055 104.432 C 279.807 106.920,279.832 108.198,282.184 111.031 C 287.339 117.242,298.487 117.825,304.190 112.181 C 309.174 107.249,308.378 97.505,302.776 94.861 C 301.107 94.074,298.346 93.229,295.501 92.635 C 291.839 91.870,290.450 91.091,290.180 89.653 C 289.610 86.612,294.197 85.092,296.960 87.407 C 300.223 90.140,303.183 89.263,305.034 85.014 C 306.719 81.146,298.716 77.005,291.337 77.927 M339.838 77.927 C 331.663 78.948,327.207 86.895,330.694 94.237 C 332.118 97.236,335.577 99.354,341.144 100.635 C 345.649 101.673,346.953 102.573,346.736 104.499 C 346.298 108.377,341.612 108.724,337.768 105.163 C 334.527 102.160,332.770 101.982,330.556 104.432 C 328.309 106.920,328.334 108.198,330.685 111.031 C 335.840 117.242,346.988 117.825,352.691 112.181 C 357.675 107.249,356.880 97.505,351.277 94.861 C 349.609 94.074,346.848 93.229,344.002 92.635 C 340.340 91.870,338.951 91.091,338.681 89.653 C 338.111 86.612,342.699 85.092,345.462 87.407 C 348.724 90.140,351.684 89.263,353.535 85.014 C 355.220 81.146,347.217 77.005,339.838 77.927 M363.266 78.473 C 361.190 78.740,360.698 79.519,360.793 82.399 C 360.904 85.794,360.946 85.814,368.343 85.888 L 374.015 85.945 374.065 99.694 C 374.126 116.734,373.767 115.441,378.442 115.441 C 383.205 115.441,382.822 116.799,382.883 99.694 L 382.931 85.945 388.605 85.888 C 395.807 85.816,395.843 85.804,396.193 83.327 C 396.630 80.230,395.873 78.744,393.715 78.466 C 392.226 78.274,364.768 78.281,363.266 78.473 M315.945 78.641 C 315.051 78.868,314.483 79.315,314.077 80.112 C 313.488 81.266,313.593 113.403,314.188 114.201 C 315.696 116.224,321.229 116.079,322.326 113.987 C 322.876 112.938,322.932 80.975,322.385 79.975 C 321.722 78.762,318.281 78.049,315.945 78.641 M245.435 79.918 C 243.384 80.435,243.158 80.960,243.079 85.404 L 243.014 88.974 241.474 89.038 C 239.056 89.137,238.510 89.986,238.515 93.642 C 238.520 96.986,239.273 97.981,241.715 97.873 L 243.012 97.815 243.099 102.904 C 243.268 112.798,245.561 115.534,253.692 115.544 C 257.601 115.549,258.368 114.849,258.386 111.262 C 258.401 108.166,257.748 107.378,254.990 107.169 C 252.092 106.950,252.134 107.030,252.134 101.748 L 252.134 97.798 254.723 97.868 C 259.004 97.983,259.673 97.375,259.673 93.370 C 259.673 89.515,259.222 89.101,255.028 89.101 L 252.135 89.101 252.121 86.285 C 252.100 81.743,251.873 80.944,250.397 80.205 C 249.603 79.808,246.570 79.632,245.435 79.918 M216.213 89.030 C 210.070 90.053,205.308 96.926,206.009 103.756 C 206.922 112.655,217.613 118.878,223.245 113.790 L 223.943 113.159 224.279 113.834 C 225.376 116.041,231.182 116.216,232.420 114.078 C 232.991 113.092,232.996 91.514,232.425 90.372 C 231.260 88.043,224.956 88.323,224.158 90.740 L 223.946 91.384 223.244 90.750 C 221.522 89.195,218.970 88.570,216.213 89.030 M220.991 98.254 C 222.548 98.961,223.794 101.192,223.510 102.760 C 222.716 107.131,217.019 107.776,215.263 103.694 C 213.816 100.329,217.615 96.720,220.991 98.254 " stroke="none" fill="#040404" fill-rule="evenodd"></path><path id="path2" d="M98.547 77.999 C 84.357 80.355,76.360 93.039,80.685 106.329 C 84.629 118.446,99.504 124.672,110.856 118.957 C 116.311 116.211,117.044 114.364,114.291 110.310 C 112.191 107.217,110.925 106.966,107.720 109.008 C 98.853 114.657,87.667 106.814,90.079 96.639 C 91.819 89.300,101.289 85.489,107.378 89.677 C 110.454 91.793,111.931 91.627,114.139 88.919 C 116.937 85.488,116.575 83.367,112.800 81.081 C 108.346 78.383,103.085 77.246,98.547 77.999 M51.188 78.356 C 50.171 78.641,48.981 79.430,48.415 80.193 C 47.814 81.004,31.663 114.569,31.407 115.538 C 30.908 117.430,31.868 118.777,34.694 120.153 C 38.733 122.119,39.624 121.584,42.619 115.395 L 44.487 111.535 52.495 111.535 L 60.502 111.535 62.578 115.796 C 64.482 119.706,64.717 120.099,65.420 120.565 C 68.097 122.334,74.053 119.104,73.694 116.077 C 73.573 115.051,73.822 115.587,65.309 98.002 C 56.906 80.645,56.814 80.461,56.126 79.678 C 55.031 78.430,52.928 77.867,51.188 78.356 M126.158 78.462 C 125.004 78.743,124.416 79.201,123.966 80.166 L 123.528 81.108 123.528 99.364 L 123.528 117.620 123.967 118.564 C 125.027 120.840,130.847 121.341,132.731 119.318 C 133.605 118.379,133.600 118.438,133.697 106.941 L 133.787 96.081 137.463 101.129 C 139.485 103.905,141.513 106.651,141.971 107.232 C 144.559 110.518,148.331 110.417,150.910 106.994 C 151.400 106.344,153.092 104.015,154.671 101.817 C 156.250 99.619,157.851 97.429,158.230 96.951 L 158.919 96.082 158.981 106.942 C 159.054 119.786,158.972 119.337,161.399 120.164 C 164.680 121.281,168.296 120.224,168.954 117.955 C 169.397 116.429,169.327 81.594,168.879 80.432 C 168.216 78.714,166.904 78.195,163.567 78.331 C 160.125 78.470,161.156 77.435,150.536 91.423 C 148.277 94.399,146.364 96.819,146.284 96.801 C 146.205 96.782,143.212 92.917,139.633 88.211 C 136.054 83.505,132.915 79.478,132.656 79.262 C 131.674 78.441,128.069 77.997,126.158 78.462 M54.405 98.933 C 55.404 100.983,56.249 102.737,56.282 102.829 C 56.318 102.929,54.776 102.997,52.498 102.997 C 50.383 102.997,48.680 102.926,48.713 102.839 C 48.997 102.099,52.409 95.188,52.487 95.195 C 52.543 95.200,53.406 96.882,54.405 98.933 " stroke="none" fill="#fbfbfc" fill-rule="evenodd"></path><path id="path3" d="M123.385 82.289 C 123.385 82.639,123.422 82.782,123.468 82.607 C 123.513 82.432,123.513 82.146,123.468 81.971 C 123.422 81.796,123.385 81.939,123.385 82.289 M101.139 121.294 C 101.465 121.335,101.956 121.334,102.229 121.292 C 102.501 121.251,102.234 121.218,101.635 121.219 C 101.035 121.220,100.812 121.254,101.139 121.294 " stroke="none" fill="#4987fc" fill-rule="evenodd"></path><path id="path4" d="M128.111 78.241 C 128.386 78.283,128.835 78.283,129.110 78.241 C 129.385 78.199,129.160 78.165,128.610 78.165 C 128.061 78.165,127.836 78.199,128.111 78.241 M163.627 78.242 C 163.954 78.283,164.444 78.282,164.717 78.241 C 164.990 78.199,164.723 78.166,164.124 78.167 C 163.524 78.168,163.301 78.202,163.627 78.242 M115.940 84.923 C 115.942 85.322,115.980 85.465,116.023 85.239 C 116.067 85.013,116.065 84.686,116.019 84.512 C 115.974 84.338,115.938 84.523,115.940 84.923 M100.863 88.050 C 101.138 88.092,101.587 88.092,101.862 88.050 C 102.137 88.009,101.912 87.975,101.362 87.975 C 100.813 87.975,100.588 88.009,100.863 88.050 M92.904 91.417 L 92.371 92.007 92.961 91.474 C 93.286 91.180,93.551 90.915,93.551 90.883 C 93.551 90.743,93.401 90.867,92.904 91.417 M89.791 99.364 C 89.791 99.914,89.825 100.139,89.867 99.864 C 89.908 99.589,89.908 99.139,89.867 98.865 C 89.825 98.590,89.791 98.815,89.791 99.364 M84.832 113.772 C 84.832 113.803,85.098 114.069,85.422 114.362 L 86.013 114.896 85.479 114.305 C 84.982 113.755,84.832 113.631,84.832 113.772 M114.884 116.303 L 114.351 116.894 114.941 116.360 C 115.266 116.067,115.531 115.801,115.531 115.770 C 115.531 115.629,115.381 115.753,114.884 116.303 " stroke="none" fill="#8cacfc" fill-rule="evenodd"></path><path id="path5" d="M123.429 99.364 C 123.429 108.506,123.452 112.246,123.479 107.675 C 123.506 103.104,123.506 95.624,123.479 91.054 C 123.452 86.483,123.429 90.223,123.429 99.364 M44.442 111.671 C 44.365 111.795,50.598 111.792,57.766 111.666 C 59.314 111.638,56.969 111.598,52.554 111.575 C 48.139 111.553,44.488 111.596,44.442 111.671 " stroke="none" fill="#84acfc" fill-rule="evenodd"></path><path id="path6" d="M101.317 77.694 C 101.542 77.737,101.910 77.737,102.134 77.694 C 102.359 77.651,102.175 77.615,101.726 77.615 C 101.276 77.615,101.092 77.651,101.317 77.694 " stroke="none" fill="#1c6cfc" fill-rule="evenodd"></path><path id="path7" d="" stroke="none" fill="#0c38100" fill-rule="evenodd"></path><path id="path8" d="" stroke="none" fill="#0c38100" fill-rule="evenodd"></path></g></svg>